<svg width="100" viewBox="0 0 863 863" fill="none" xmlns="http://www.w3.org/2000/svg">
<g filter="url(#filter0_d_195_21)">
<path d="M431.5 823C647.719 823 823 647.719 823 431.5C823 215.281 647.719 40 431.5 40C215.281 40 40 215.281 40 431.5C40 647.719 215.281 823 431.5 823Z" stroke="#AD00FF" stroke-width="33"/>
</g>
<path d="M433.758 774.56C620.109 774.56 771.177 623.492 771.177 437.141C771.177 250.789 620.109 99.7217 433.758 99.7217C247.407 99.7217 96.3389 250.789 96.3389 437.141C96.3389 623.492 247.407 774.56 433.758 774.56Z" fill="url(#paint0_linear_195_21)"/>
<path d="M417.562 524.929H494.75C502.939 524.929 510.792 521.647 516.582 515.807C522.372 509.967 525.625 502.045 525.625 493.786V478.214H479.312C475.218 478.214 471.292 476.574 468.397 473.654C465.501 470.733 463.875 466.773 463.875 462.643C463.875 458.513 465.501 454.552 468.397 451.632C471.292 448.712 475.218 447.071 479.312 447.071H525.625V400.357H479.312C475.218 400.357 471.292 398.717 468.397 395.796C465.501 392.876 463.875 388.916 463.875 384.786C463.875 380.656 465.501 376.695 468.397 373.775C471.292 370.855 475.218 369.214 479.312 369.214H525.625V322.5H479.312C475.218 322.5 471.292 320.859 468.397 317.939C465.501 315.019 463.875 311.058 463.875 306.929C463.875 302.799 465.501 298.838 468.397 295.918C471.292 292.998 475.218 291.357 479.312 291.357H525.625V275.786C525.625 267.526 522.372 259.605 516.582 253.764C510.792 247.924 502.939 244.643 494.75 244.643H371.25C363.061 244.643 355.208 247.924 349.418 253.764C343.628 259.605 340.375 267.526 340.375 275.786V291.357H386.688C390.782 291.357 394.708 292.998 397.603 295.918C400.499 298.838 402.125 302.799 402.125 306.929C402.125 311.058 400.499 315.019 397.603 317.939C394.708 320.859 390.782 322.5 386.688 322.5H340.375V369.214H386.688C390.782 369.214 394.708 370.855 397.603 373.775C400.499 376.695 402.125 380.656 402.125 384.786C402.125 388.916 400.499 392.876 397.603 395.796C394.708 398.717 390.782 400.357 386.688 400.357H340.375V447.071H386.688C390.782 447.071 394.708 448.712 397.603 451.632C400.499 454.552 402.125 458.513 402.125 462.643C402.125 466.773 400.499 470.733 397.603 473.654C394.708 476.574 390.782 478.214 386.688 478.214H340.375V493.786C340.375 502.045 343.628 509.967 349.418 515.807C355.208 521.647 363.061 524.929 371.25 524.929H417.562ZM448.438 556.071V618.357H541.062C545.157 618.357 549.083 619.998 551.978 622.918C554.874 625.838 556.5 629.799 556.5 633.929C556.5 638.058 554.874 642.019 551.978 644.939C549.083 647.859 545.157 649.5 541.062 649.5H324.938C320.843 649.5 316.917 647.859 314.022 644.939C311.126 642.019 309.5 638.058 309.5 633.929C309.5 629.799 311.126 625.838 314.022 622.918C316.917 619.998 320.843 618.357 324.938 618.357H417.562V556.071H371.25C354.873 556.071 339.167 549.509 327.586 537.828C316.006 526.148 309.5 510.305 309.5 493.786V275.786C309.5 259.267 316.006 243.424 327.586 231.743C339.167 220.062 354.873 213.5 371.25 213.5H494.75C511.127 213.5 526.833 220.062 538.414 231.743C549.994 243.424 556.5 259.267 556.5 275.786V493.786C556.5 510.305 549.994 526.148 538.414 537.828C526.833 549.509 511.127 556.071 494.75 556.071H448.438Z" fill="white"/>
<defs>
<filter id="filter0_d_195_21" x="0.5" y="0.5" width="862" height="862" filterUnits="userSpaceOnUse" color-interpolation-filters="sRGB">
<feFlood flood-opacity="0" result="BackgroundImageFix"/>
<feColorMatrix in="SourceAlpha" type="matrix" values="0 0 0 0 0 0 0 0 0 0 0 0 0 0 0 0 0 0 127 0" result="hardAlpha"/>
<feOffset/>
<feGaussianBlur stdDeviation="11.5"/>
<feColorMatrix type="matrix" values="0 0 0 0 0.531438 0 0 0 0 0 0 0 0 0 0.783333 0 0 0 0.62 0"/>
<feBlend mode="normal" in2="BackgroundImageFix" result="effect1_dropShadow_195_21"/>
<feBlend mode="normal" in="SourceGraphic" in2="effect1_dropShadow_195_21" result="shape"/>
</filter>
<linearGradient id="paint0_linear_195_21" x1="433.758" y1="99.7217" x2="473.255" y2="855.812" gradientUnits="userSpaceOnUse">
<stop stop-color="#AD00FF"/>
<stop offset="0.0001" stop-color="#AD00FF"/>
<stop offset="1" stop-color="#55007D"/>
</linearGradient>
</defs>
</svg>
