<svg width="70px" viewBox="0 0 959 571" fill="none" xmlns="http://www.w3.org/2000/svg">
<rect x="169" y="471" width="370" height="621" rx="185" transform="rotate(-90 169 471)" fill="url(#paint0_linear_112_5)"/>
<path d="M315.5 513C189.855 513 88 411.145 88 285.5C88 159.855 189.855 58 315.5 58L644.5 58C770.145 58 872 159.855 872 285.5C872 411.145 770.145 513 644.5 513H315.5Z" stroke="#1DA1F2" stroke-width="30"/>
<path d="M296 542C154.615 542 40 427.385 40 286C40 144.615 154.615 30 296 30H664C805.385 30 920 144.615 920 286C920 427.385 805.385 542 664 542H296Z" stroke="#1DA1F2" stroke-opacity="0.22" stroke-width="30"/>
<path d="M285.5 556C136.107 556 15 434.893 15 285.5C15 136.107 136.107 15 285.5 15H673.5C822.893 15 944 136.107 944 285.5C944 434.893 822.893 556 673.5 556H285.5Z" stroke="#1DA1F2" stroke-opacity="0.06" stroke-width="30"/>
<path d="M421.561 258.588C421.561 258.588 420.122 257.741 417.243 256.048C414.364 254.355 410.554 252.492 405.813 250.46C401.072 248.259 395.907 246.311 390.319 244.618C384.731 242.925 379.228 242.078 373.809 242.078C369.576 242.078 366.104 242.755 363.395 244.11C360.686 245.465 359.331 247.751 359.331 250.968C359.331 254.016 360.686 256.471 363.395 258.334C366.104 260.197 369.914 261.89 374.825 263.414C379.905 264.938 385.916 266.801 392.859 269.002C404.035 272.389 413.687 276.283 421.815 280.686C429.943 285.089 436.208 290.761 440.611 297.704C445.014 304.477 447.215 313.537 447.215 324.882C447.215 335.719 445.268 344.863 441.373 352.314C437.478 359.595 432.229 365.437 425.625 369.84C419.021 374.243 411.655 377.46 403.527 379.492C395.399 381.355 387.102 382.286 378.635 382.286C369.999 382.286 360.94 381.439 351.457 379.746C342.144 377.883 333.084 375.428 324.279 372.38C315.474 369.163 307.43 365.437 300.149 361.204L321.485 317.77C321.485 317.77 323.178 318.786 326.565 320.818C329.952 322.85 334.439 325.136 340.027 327.676C345.615 330.216 351.796 332.502 358.569 334.534C365.512 336.566 372.454 337.582 379.397 337.582C384.816 337.582 388.541 336.905 390.573 335.55C392.774 334.026 393.875 332.079 393.875 329.708C393.875 326.152 392.012 323.443 388.287 321.58C384.562 319.548 379.651 317.685 373.555 315.992C367.628 314.129 361.024 312.013 353.743 309.642C343.244 306.086 334.608 302.107 327.835 297.704C321.062 293.132 316.066 287.798 312.849 281.702C309.632 275.437 308.023 267.901 308.023 259.096C308.023 245.719 311.156 234.543 317.421 225.568C323.686 216.593 331.899 209.82 342.059 205.248C352.388 200.507 363.48 198.136 375.333 198.136C384.138 198.136 392.605 199.237 400.733 201.438C409.03 203.47 416.735 206.01 423.847 209.058C431.128 212.106 437.478 214.985 442.897 217.694L421.561 258.588ZM530.067 380V199.66H579.597V336.82H661.385V380H530.067Z" fill="white"/>
<defs>
<linearGradient id="paint0_linear_112_5" x1="354" y1="471" x2="354" y2="1092" gradientUnits="userSpaceOnUse">
<stop stop-color="#1DA1F2"/>
<stop offset="1" stop-color="#003F65"/>
</linearGradient>
</defs>
</svg>
